<?xml version="1.0" encoding="UTF-8" standalone="no"?>
<!DOCTYPE svg PUBLIC "-//W3C//DTD SVG 20010904//EN"
              "http://www.w3.org/TR/2001/REC-SVG-20010904/DTD/svg10.dtd">

<svg xmlns="http://www.w3.org/2000/svg"
     viewBox="0 0 480 480">
  <rect x="0" y="0" width="480" height="480" fill="lightgrey" />
  <path id="Selection"
        fill='slateblue'
        d="M 0.00,319.00
           C 0.00,319.00 18.00,314.66 18.00,314.66
             27.69,312.56 47.23,310.02 57.00,310.00
             57.00,310.00 108.00,310.00 108.00,310.00
             108.00,310.00 123.00,311.00 123.00,311.00
             129.42,311.07 141.17,311.12 147.00,308.86
             153.30,306.41 157.77,299.46 172.00,298.32
             184.64,297.32 194.84,305.29 202.91,314.00
             205.77,317.08 209.85,322.09 211.34,326.00
             213.18,330.83 213.06,336.89 213.00,342.00
             212.77,361.59 194.33,386.42 185.26,404.00
             172.86,428.04 167.49,454.52 159.00,480.00
             159.00,480.00 177.00,480.00 177.00,480.00
             177.00,480.00 181.85,463.00 181.85,463.00
             187.66,441.50 190.06,432.36 200.25,412.00
             208.60,395.31 221.60,377.53 226.57,360.00
             229.51,349.64 229.02,345.41 229.00,335.00
             229.00,335.00 227.91,320.42 227.91,320.42
             227.91,320.42 229.57,311.00 229.57,311.00
             229.57,311.00 231.00,294.00 231.00,294.00
             231.00,294.00 230.09,280.00 230.09,280.00
             228.81,261.34 225.68,243.30 221.79,225.00
             219.14,212.53 215.77,197.75 216.02,185.00
             216.02,185.00 216.91,176.00 216.91,176.00
             217.30,170.38 215.87,160.15 224.00,161.06
             224.00,161.06 252.00,167.58 252.00,167.58
             286.59,177.45 317.96,194.86 342.96,221.00
             342.96,221.00 372.00,256.00 372.00,256.00
             375.09,259.86 382.71,269.77 386.09,272.44
             395.86,280.19 408.97,273.83 407.89,261.00
             407.47,255.96 402.58,246.52 400.00,242.00
             400.00,242.00 382.00,213.00 382.00,213.00
             358.39,177.76 333.96,153.93 300.00,128.88
             300.00,128.88 265.00,104.67 265.00,104.67
             265.00,104.67 251.10,95.91 251.10,95.91
             246.70,92.60 242.33,84.23 236.96,79.17
             223.81,66.78 203.26,57.22 185.00,57.00
             185.00,57.00 175.00,57.00 175.00,57.00
             168.35,57.01 165.35,57.41 159.00,59.70
             146.75,64.12 138.51,73.66 132.76,85.00
             119.43,111.27 124.55,144.43 134.81,171.00
             134.81,171.00 146.86,199.00 146.86,199.00
             153.87,214.74 161.78,223.67 162.00,242.00
             162.00,242.00 161.17,271.00 161.17,271.00
             160.83,274.37 160.95,279.88 159.02,282.73
             157.31,285.23 153.67,286.07 151.00,287.32
             142.90,291.13 142.37,294.87 133.00,295.00
             133.00,295.00 112.00,295.00 112.00,295.00
             112.00,295.00 97.00,294.00 97.00,294.00
             97.00,294.00 59.00,294.00 59.00,294.00
             46.48,294.02 27.37,296.44 15.00,299.00
             1.48,301.80 0.06,301.52 0.00,310.00
             0.00,310.00 0.00,319.00 0.00,319.00 Z
           M 205.00,146.00
           C 198.83,145.50 192.76,144.06 187.00,141.80
             183.38,140.37 178.92,137.61 175.04,139.05
             169.47,141.12 168.25,147.82 174.06,152.37
             180.50,157.41 193.85,160.82 202.00,161.00
             202.00,161.00 201.00,178.00 201.00,178.00
             201.00,178.00 201.00,192.00 201.00,192.00
             201.02,207.57 206.21,226.53 209.20,242.00
             213.28,263.17 215.00,279.45 215.00,301.00
             209.13,298.22 204.61,292.39 198.00,288.47
             191.21,284.46 183.61,283.39 176.00,282.00
             176.00,282.00 178.00,254.00 178.00,254.00
             178.02,244.28 177.17,229.14 174.25,220.00
             174.25,220.00 157.26,184.00 157.26,184.00
             148.98,166.90 140.23,141.05 140.00,122.00
             139.81,105.43 144.98,85.75 160.00,76.47
             175.88,66.65 202.39,73.30 217.00,83.09
             221.16,85.88 229.37,92.26 231.01,97.00
             232.70,101.89 224.16,109.58 220.98,113.00
             211.76,122.89 206.90,132.54 205.00,146.00 Z
           M 193.00,100.74
           C 179.52,108.02 189.17,124.83 201.00,120.26
             208.55,117.34 210.11,106.83 203.66,101.89
             200.48,99.46 196.62,99.86 193.00,100.74 Z
           M 376.00,234.00
           C 370.29,229.29 365.83,222.53 360.83,217.00
             353.32,208.69 342.63,198.47 334.00,191.28
             312.27,173.18 284.09,160.31 257.00,152.58
             248.09,150.04 230.90,145.73 222.00,145.00
             222.85,127.62 234.63,122.70 243.00,111.00
             248.69,112.36 252.11,115.16 257.00,118.19
             257.00,118.19 283.00,135.86 283.00,135.86
             314.40,158.32 333.96,174.83 357.37,206.00
             362.68,213.07 373.01,226.18 376.00,234.00 Z
           M 83.00,480.00
           C 83.00,480.00 94.00,480.00 94.00,480.00
             96.44,480.00 99.66,480.21 101.82,478.98
             106.05,476.57 113.46,461.88 115.69,457.00
             127.68,430.83 128.46,399.08 109.54,376.00
             104.53,369.89 92.68,359.80 85.00,357.64
             78.72,355.86 73.13,358.84 74.24,365.98
             75.10,371.50 81.79,373.62 86.00,376.57
             92.67,381.24 98.36,386.97 102.53,394.00
             113.20,411.99 108.96,436.32 99.68,454.00
             99.68,454.00 83.00,480.00 83.00,480.00 Z" />
</svg>
